<?xml version="1.0" standalone="no"?>
<!DOCTYPE svg PUBLIC "-//W3C//DTD SVG 20010904//EN"
 "http://www.w3.org/TR/2001/REC-SVG-20010904/DTD/svg10.dtd">
<svg version="1.0" xmlns="http://www.w3.org/2000/svg"
 width="499.000000pt" height="161.000000pt" viewBox="0 0 499.000000 161.000000"
 preserveAspectRatio="xMidYMid meet">

<g transform="translate(0.000000,161.000000) scale(0.100000,-0.100000)"
fill="#000000" stroke="none">
<path d="M424 1274 c-192 -173 -362 -329 -377 -345 -28 -30 -28 -33 -22 -112
9 -112 20 -148 52 -179 19 -19 131 -66 359 -152 181 -69 338 -126 347 -126 10
0 182 149 382 331 392 355 393 356 338 399 -60 47 -68 98 -23 140 35 32 38 62
11 87 -18 17 -683 274 -707 273 -6 0 -168 -142 -360 -316z m1013 -185 c13 -15
8 -22 -39 -66 -149 -139 -624 -566 -635 -570 -16 -6 -603 215 -625 236 -10 9
-17 34 -19 61 -3 64 -1 70 18 70 10 0 154 -52 322 -115 167 -64 309 -114 315
-111 6 3 150 132 321 286 309 281 309 282 318 253 6 -15 16 -35 24 -44z"/>
<path d="M2960 875 l0 -265 25 0 c25 0 25 1 25 85 0 84 0 85 25 85 18 0 41
-21 95 -85 60 -72 76 -85 101 -85 30 0 30 0 -52 101 l-82 101 79 79 c77 77 78
79 48 79 -23 0 -44 -14 -99 -70 -45 -46 -77 -70 -92 -70 -23 0 -23 0 -23 155
l0 155 -25 0 -25 0 0 -265z"/>
<path d="M1700 870 l0 -262 118 4 c135 5 182 21 212 70 39 64 21 137 -41 165
-21 10 -39 21 -39 24 0 3 12 12 26 19 51 28 70 110 38 171 -23 45 -72 61 -201
67 l-113 5 0 -263z m242 190 c30 -23 39 -60 26 -106 -12 -47 -50 -64 -138 -64
l-70 0 0 95 0 95 79 0 c63 0 83 -4 103 -20z m7 -235 c32 -16 41 -33 41 -78 -1
-64 -40 -87 -149 -87 l-81 0 0 90 0 90 80 0 c52 0 91 -5 109 -15z"/>
<path d="M3401 1113 c-46 -23 -71 -67 -71 -125 0 -65 33 -100 123 -132 100
-36 117 -50 117 -92 0 -46 -14 -70 -50 -89 -41 -21 -79 -19 -136 10 -58 29
-60 30 -68 9 -9 -22 11 -43 59 -65 111 -51 234 6 250 115 12 79 -30 127 -143
163 -96 31 -127 83 -79 138 32 38 91 44 147 15 34 -18 44 -19 51 -8 17 25 9
39 -33 58 -53 24 -122 25 -167 3z"/>
<path d="M3756 1068 c-18 -99 -20 -103 -49 -106 -37 -4 -33 -36 6 -40 l27 -3
0 -130 c0 -126 1 -131 26 -156 22 -22 32 -25 71 -20 51 5 66 16 57 40 -4 13
-10 14 -24 7 -26 -14 -46 -12 -64 6 -13 12 -16 40 -16 135 l0 119 55 0 c52 0
55 1 55 25 0 24 -3 25 -55 25 l-55 0 0 60 c0 46 -3 60 -15 60 -8 0 -17 -10
-19 -22z"/>
<path d="M2207 948 c-104 -61 -103 -257 2 -316 83 -47 192 -17 231 63 26 54
26 136 0 190 -39 80 -151 110 -233 63z m137 -30 c80 -36 88 -203 13 -248 -65
-40 -147 -12 -166 57 -23 80 -5 154 42 183 36 23 74 25 111 8z"/>
<path d="M2625 957 c-86 -40 -121 -163 -72 -257 33 -66 65 -85 145 -85 53 0
73 5 98 22 91 65 91 241 1 305 -38 27 -128 35 -172 15z m119 -37 c89 -33 88
-227 -2 -261 -67 -26 -138 16 -152 90 -22 124 54 209 154 171z"/>
<path d="M4050 953 c-65 -34 -100 -117 -85 -203 16 -92 82 -144 178 -137 101
6 152 66 152 177 0 72 -20 118 -67 153 -39 29 -131 34 -178 10z m159 -57 c24
-24 26 -34 26 -106 0 -74 -2 -82 -28 -107 -23 -23 -36 -28 -77 -28 -41 0 -54
5 -77 28 -26 25 -28 33 -28 106 0 83 13 112 60 132 35 15 96 3 124 -25z"/>
<path d="M4390 791 l0 -181 25 0 25 0 0 113 c0 94 3 117 20 145 23 37 59 54
104 50 27 -3 31 0 31 22 0 22 -5 25 -38 28 -32 3 -43 -2 -73 -32 -20 -20 -38
-36 -39 -36 -2 0 -5 15 -7 33 -2 24 -8 33 -25 35 l-23 3 0 -180z"/>
<path d="M4740 951 c-19 -10 -45 -36 -58 -57 -30 -52 -28 -167 4 -211 51 -69
140 -93 217 -59 55 25 62 32 48 49 -11 14 -17 13 -54 -4 -50 -22 -77 -24 -121
-5 -34 14 -66 65 -66 105 0 19 6 21 128 23 l127 3 -3 39 c-7 84 -61 136 -142
136 -25 0 -61 -8 -80 -19z m151 -48 c10 -10 21 -30 24 -45 l7 -28 -107 0
c-106 0 -106 0 -99 23 8 28 33 57 59 68 30 13 96 3 116 -18z"/>
<path d="M1152 639 c-194 -175 -357 -319 -364 -319 -17 0 -669 249 -701 268
-28 16 -29 16 -48 -7 -18 -22 -19 -34 -14 -105 9 -110 21 -151 53 -182 19 -18
129 -65 366 -155 308 -117 342 -128 360 -115 12 8 179 157 371 332 231 209
351 325 353 340 2 15 -10 35 -37 62 -50 49 -52 78 -10 126 17 20 29 44 27 55
-2 16 -79 -49 -356 -300z m274 127 l22 -43 -330 -299 c-181 -164 -340 -303
-352 -308 -17 -7 -82 14 -292 94 -384 145 -351 128 -356 191 -5 61 -1 79 16
79 7 0 149 -52 315 -115 167 -63 308 -115 315 -115 7 0 152 126 322 280 169
154 311 280 314 280 3 -1 15 -20 26 -44z"/>
</g>
</svg>
